<svg width="20" height="20" viewBox="0 0 20 20" fill="none" xmlns="http://www.w3.org/2000/svg">
<mask id="mask0_2008_1319" style="mask-type:alpha" maskUnits="userSpaceOnUse" x="0" y="0" width="20" height="20">
<path d="M10.1269 16.4371C10.0486 16.3911 9.9515 16.3911 9.87324 16.4371L4.29442 19.7206C4.10932 19.8296 3.88208 19.6698 3.92196 19.4587L5.17506 12.8276C5.19064 12.7452 5.16384 12.6604 5.10369 12.6019L0.373233 8.00227C0.222888 7.85608 0.308496 7.6009 0.516587 7.57495L6.89251 6.78008C6.97991 6.76918 7.05513 6.71309 7.09052 6.63243L9.77111 0.521914C9.85859 0.322489 10.1415 0.32249 10.229 0.521916L12.9095 6.63243C12.9449 6.71309 13.0201 6.76918 13.1075 6.78008L19.4834 7.57495C19.6915 7.6009 19.7771 7.85608 19.6268 8.00227L14.8964 12.6019C14.8362 12.6604 14.8094 12.7452 14.825 12.8276L16.0781 19.4587C16.118 19.6698 15.8907 19.8296 15.7056 19.7206L10.1269 16.4371Z" fill="#0C9347"/>
</mask>
<g mask="url(#mask0_2008_1319)">
<path d="M10.1269 16.4371C10.0486 16.3911 9.9515 16.3911 9.87324 16.4371L4.29442 19.7206C4.10932 19.8296 3.88208 19.6698 3.92196 19.4587L5.17506 12.8276C5.19064 12.7452 5.16384 12.6604 5.10369 12.6019L0.373233 8.00227C0.222888 7.85608 0.308496 7.6009 0.516587 7.57495L6.89251 6.78008C6.97991 6.76918 7.05513 6.71309 7.09052 6.63243L9.77111 0.521914C9.85859 0.322489 10.1415 0.32249 10.229 0.521916L12.9095 6.63243C12.9449 6.71309 13.0201 6.76918 13.1075 6.78008L19.4834 7.57495C19.6915 7.6009 19.7771 7.85608 19.6268 8.00227L14.8964 12.6019C14.8362 12.6604 14.8094 12.7452 14.825 12.8276L16.0781 19.4587C16.118 19.6698 15.8907 19.8296 15.7056 19.7206L10.1269 16.4371Z" fill="#0C9347"/>
<rect x="10" y="3.05176e-05" width="11" height="20" fill="#DBDBDB"/>
</g>
</svg>
