<svg width="20" height="20" viewBox="0 0 20 20" fill="none" xmlns="http://www.w3.org/2000/svg">
<path d="M10.1269 16.4371C10.0486 16.3911 9.9515 16.3911 9.87324 16.4371L4.29442 19.7206C4.10932 19.8295 3.88208 19.6698 3.92196 19.4587L5.17506 12.8276C5.19064 12.7451 5.16384 12.6604 5.10369 12.6019L0.373233 8.00224C0.222888 7.85605 0.308496 7.60087 0.516587 7.57492L6.89251 6.78005C6.97991 6.76915 7.05513 6.71306 7.09052 6.6324L9.77111 0.521883C9.85859 0.322458 10.1415 0.32246 10.229 0.521885L12.9095 6.6324C12.9449 6.71306 13.0201 6.76915 13.1075 6.78005L19.4834 7.57492C19.6915 7.60087 19.7771 7.85605 19.6268 8.00224L14.8964 12.6019C14.8362 12.6604 14.8094 12.7451 14.825 12.8276L16.0781 19.4587C16.118 19.6698 15.8907 19.8295 15.7056 19.7206L10.1269 16.4371Z" fill="#0C9347"/>
</svg>
