<svg width="20" height="16" viewBox="0 0 20 16" fill="none" xmlns="http://www.w3.org/2000/svg">
<path d="M2.79844 0.800049C1.47295 0.800049 0.398438 1.87457 0.398438 3.20005V8.00005C0.398438 9.32553 1.47295 10.4 2.79844 10.4L2.79844 3.20005H14.7984C14.7984 1.87457 13.7239 0.800049 12.3984 0.800049H2.79844Z" fill="#111827"/>
<path fill-rule="evenodd" clip-rule="evenodd" d="M5.19844 8.00005C5.19844 6.67457 6.27295 5.60005 7.59844 5.60005H17.1984C18.5239 5.60005 19.5984 6.67457 19.5984 8.00005V12.8C19.5984 14.1255 18.5239 15.2 17.1984 15.2H7.59844C6.27295 15.2 5.19844 14.1255 5.19844 12.8V8.00005ZM12.3984 12.8C13.7239 12.8 14.7984 11.7255 14.7984 10.4C14.7984 9.07457 13.7239 8.00005 12.3984 8.00005C11.073 8.00005 9.99844 9.07457 9.99844 10.4C9.99844 11.7255 11.073 12.8 12.3984 12.8Z" fill="#111827"/>
</svg>
